<svg width="88" height="88" viewBox="0 0 88 88" fill="none" xmlns="http://www.w3.org/2000/svg">
<path d="M57.7232 38.5311C57.9539 26.9444 40.3539 28.5368 44.8796 8.38062C44.8796 8.38062 33.0624 13.0321 35.1367 27.3006C35.8491 32.2035 34.131 35.8702 34.131 35.8702C32.392 36.2263 29.6891 32.7692 30.632 27.4263C30.632 27.4263 24.4301 32.0568 24.4301 38.0071C24.4301 43.9578 27.3005 50.2644 27.3005 50.2644C20.1558 48.7138 20.8682 39.076 20.8682 39.076C20.8682 39.076 16.3424 45.1311 16.3424 56.5502C16.3424 65.4338 26.3577 79.6187 42.5121 79.6187C58.6663 79.6187 71.6357 67.0893 71.6357 55.9426C71.6357 51.0605 69.9805 44.7538 66.3978 41.3178C66.3978 41.3178 66.8796 51.0605 62.0605 50.5996C62.0605 50.5996 66.0414 37.8817 61.8721 32.0568C61.8721 32.0568 59.8605 38.3426 57.7232 38.5311Z" fill="url(#paint0_linear_12_64)"/>
<path d="M57.7441 29.795C62.4371 21.1417 50.8086 19.9474 50.7877 14.6255C50.7877 14.6255 48.7344 20.115 53.6375 23.8655C57.6393 26.9036 57.7441 29.795 57.7441 29.795Z" fill="url(#paint1_linear_12_64)"/>
<path d="M33.0623 13.2415C31.2813 15.0015 33.7328 22.2719 28.1595 25.1424C28.1595 25.1424 26.2737 17.1595 33.0623 13.2415Z" fill="url(#paint2_linear_12_64)"/>
<path opacity="0.5" d="M20.0091 41.9881C18.4586 44.6494 16.3424 49.573 16.3424 56.5503C16.3424 64.3445 26.2739 78.676 42.5121 78.676C58.373 78.676 70.693 66.4605 70.693 55.9636C70.693 52.1712 69.6454 47.3312 67.3196 43.8948C67.1521 46.053 66.6281 48.9863 65.0148 50.516C64.1766 51.3121 63.129 51.6681 61.9766 51.5427L60.8032 51.4378L61.1596 50.3272C61.2014 50.2227 64.2396 40.2912 62.0396 34.4035C61.1596 36.5616 59.6512 39.3481 57.8072 39.4948L56.7596 39.5787L56.7805 38.5312C56.8645 34.194 54.2032 31.8892 51.1232 29.2283C46.7232 25.4149 41.7578 21.0988 43.5805 10.1406C40.5214 11.9425 34.571 16.9083 36.0586 27.154C36.813 32.2873 35.032 36.1006 34.9691 36.2683L34.7596 36.7081L34.2986 36.7921C33.4186 36.9596 32.4967 36.6035 31.6586 35.8073C30.5272 34.6968 29.5005 32.6016 29.4586 29.7521C27.7405 31.5121 25.3729 34.5502 25.3729 38.0072C25.3729 43.6854 28.1386 49.8036 28.1596 49.8663L28.9348 51.5845L27.091 51.1863C22.272 50.1387 20.4701 45.6548 20.0091 41.9881Z" fill="url(#paint3_linear_12_64)"/>
<path d="M50.7881 14.6255C50.369 17.7893 51.6263 22.336 53.6375 23.8655C55.4814 25.2693 57.5557 27.6788 57.7232 29.795C60.8663 23.635 56.445 21.3512 53.9099 20.4502C52.8414 20.0731 50.8717 17.8731 50.7881 14.6255Z" fill="url(#paint4_radial_12_64)"/>
<path d="M41.1294 13.7249C34.1733 24.6201 43.204 36.123 38.5524 43.0162C33.901 49.9095 29.1867 43.5401 28.8724 39.2237C28.8724 39.2237 28.9143 53.1783 35.8076 58.6886C42.7009 64.1992 22.5447 63.005 19.7791 56.2792C19.7791 56.2792 19.7791 78.6771 42.5124 78.6771C65.2458 78.6771 69.0382 57.8295 69.0382 57.8295C69.0382 57.8295 60.7618 64.8904 55.2515 59.3801C55.2515 59.3801 59.3791 52.1517 60.4267 44.7344C60.4267 44.7344 57.5773 46.5362 53.1982 45.845C53.1982 45.845 55.6285 35.4315 50.6627 32.0163C44.2933 27.6372 38.9085 17.203 41.1294 13.7249Z" fill="url(#paint5_linear_12_64)"/>
<path d="M42.8685 26.5457C39.2227 31.3437 46.3258 43.6637 38.8667 48.5455C34.739 51.2485 32.3714 48.001 32.3714 48.001C32.3714 48.001 33.4819 52.9876 37.9236 57.4294C42.3658 61.8712 31.24 67.8846 22.2095 60.1112C22.2095 60.1112 25.3104 78.7801 46.3258 75.637C69.52 72.1801 67.8018 54.9361 67.8018 54.9361C67.8018 54.9361 61.516 64.8255 52.5694 60.0903C52.5694 60.0903 58.2058 52.2334 58.2058 47.7285C58.2058 47.7285 54.3924 49.9912 50.0342 47.8121C50.0342 47.8121 52.1085 37.3361 49.636 35.7647C43.7067 31.9723 42.8685 26.5457 42.8685 26.5457Z" fill="url(#paint6_linear_12_64)"/>
<path opacity="0.5" d="M57.7232 38.5311C57.9539 26.9444 40.3539 28.5368 44.8796 8.38062C44.8796 8.38062 33.0624 13.0321 35.1367 27.3006C35.8491 32.2035 34.131 35.8702 34.131 35.8702C32.392 36.2263 29.6891 32.7692 30.632 27.4263C30.632 27.4263 24.4301 32.0568 24.4301 38.0071C24.4301 43.9578 27.3005 50.2644 27.3005 50.2644C20.1558 48.7138 20.8682 39.076 20.8682 39.076C20.8682 39.076 16.3424 45.1311 16.3424 56.5502C16.3424 65.4338 26.3577 79.6187 42.5121 79.6187C58.6663 79.6187 71.6357 67.0893 71.6357 55.9426C71.6357 51.0605 69.9805 44.7538 66.3978 41.3178C66.3978 41.3178 66.8796 51.0605 62.0605 50.5996C62.0605 50.5996 66.0414 37.8817 61.8721 32.0568C61.8721 32.0568 59.8605 38.3426 57.7232 38.5311Z" fill="url(#paint7_radial_12_64)"/>
<path opacity="0.5" d="M57.7232 38.5311C57.9539 26.9444 40.3539 28.5368 44.8796 8.38062C44.8796 8.38062 33.0624 13.0321 35.1367 27.3006C35.8491 32.2035 34.131 35.8702 34.131 35.8702C32.392 36.2263 29.6891 32.7692 30.632 27.4263C30.632 27.4263 24.4301 32.0568 24.4301 38.0071C24.4301 43.9578 27.3005 50.2644 27.3005 50.2644C20.1558 48.7138 20.8682 39.076 20.8682 39.076C20.8682 39.076 16.3424 45.1311 16.3424 56.5502C16.3424 65.4338 26.3577 79.6187 42.5121 79.6187C58.6663 79.6187 71.6357 67.0893 71.6357 55.9426C71.6357 51.0605 69.9805 44.7538 66.3978 41.3178C66.3978 41.3178 66.8796 51.0605 62.0605 50.5996C62.0605 50.5996 66.0414 37.8817 61.8721 32.0568C61.8721 32.0568 59.8605 38.3426 57.7232 38.5311Z" fill="url(#paint8_radial_12_64)"/>
<path d="M17.7676 51.6894C18.2495 63.5273 27.9923 77.7121 43.2249 77.7121C58.4569 77.7121 66.0627 61.6419 66.5449 52.2339C66.5449 52.2339 63.6951 57.7655 57.2627 58.8761C50.8303 59.9864 57.7027 47.813 53.1982 40.6055C53.1982 40.6055 49.2169 53.1561 43.56 53.617C37.9027 54.0779 33.1047 45.3197 33.1047 40.6055C33.1047 40.6055 29.6266 49.0912 30.4857 55.8379C31.8057 66.0837 17.7676 51.6894 17.7676 51.6894Z" fill="url(#paint9_radial_12_64)"/>
<path opacity="0.5" d="M57.7232 38.5311C57.9539 26.9444 40.3539 28.5368 44.8796 8.38062C44.8796 8.38062 33.0624 13.0321 35.1367 27.3006C35.8491 32.2035 34.131 35.8702 34.131 35.8702C32.392 36.2263 29.6891 32.7692 30.632 27.4263C30.632 27.4263 24.4301 32.0568 24.4301 38.0071C24.4301 43.9578 27.3005 50.2644 27.3005 50.2644C20.1558 48.7138 20.8682 39.076 20.8682 39.076C20.8682 39.076 16.3424 45.1311 16.3424 56.5502C16.3424 65.4338 26.3577 79.6187 42.5121 79.6187C58.6663 79.6187 71.6357 67.0893 71.6357 55.9426C71.6357 51.0605 69.9805 44.7538 66.3978 41.3178C66.3978 41.3178 66.8796 51.0605 62.0605 50.5996C62.0605 50.5996 66.0414 37.8817 61.8721 32.0568C61.8721 32.0568 59.8605 38.3426 57.7232 38.5311Z" fill="url(#paint10_radial_12_64)"/>
<path opacity="0.5" d="M57.7441 29.795C62.4371 21.1417 50.8086 19.9474 50.7877 14.6255C50.7877 14.6255 48.7344 20.115 53.6375 23.8655C57.6393 26.9036 57.7441 29.795 57.7441 29.795Z" fill="url(#paint11_radial_12_64)"/>
<path d="M33.0623 13.2415C31.3023 15.0015 32.4337 20.5538 28.1595 25.1424C28.1595 25.1424 26.2737 17.1595 33.0623 13.2415Z" fill="url(#paint12_radial_12_64)"/>
<path opacity="0.5" d="M33.0623 13.2415C31.2813 15.0015 33.7328 22.2719 28.1595 25.1424C28.1595 25.1424 26.2737 17.1595 33.0623 13.2415Z" fill="url(#paint13_radial_12_64)"/>
<path opacity="0.5" d="M57.7232 38.5311C57.9539 26.9444 40.3539 28.5368 44.8796 8.38062C44.8796 8.38062 33.0624 13.0321 35.1367 27.3006C35.8491 32.2035 34.131 35.8702 34.131 35.8702C32.392 36.2263 29.6891 32.7692 30.632 27.4263C30.632 27.4263 24.4301 32.0568 24.4301 38.0071C24.4301 43.9578 27.3005 50.2644 27.3005 50.2644C20.1558 48.7138 20.8682 39.076 20.8682 39.076C20.8682 39.076 16.3424 45.1311 16.3424 56.5502C16.3424 65.4338 26.3577 79.6187 42.5121 79.6187C58.6663 79.6187 71.6357 67.0893 71.6357 55.9426C71.6357 51.0605 69.9805 44.7538 66.3978 41.3178C66.3978 41.3178 66.8796 51.0605 62.0605 50.5996C62.0605 50.5996 66.0414 37.8817 61.8721 32.0568C61.8721 32.0568 59.8605 38.3426 57.7232 38.5311Z" fill="url(#paint14_radial_12_64)"/>
<path opacity="0.25" d="M57.7232 38.5311C57.9539 26.9444 40.3539 28.5368 44.8796 8.38062C44.8796 8.38062 33.0624 13.0321 35.1367 27.3006C35.8491 32.2035 34.131 35.8702 34.131 35.8702C32.392 36.2263 29.6891 32.7692 30.632 27.4263C30.632 27.4263 24.4301 32.0568 24.4301 38.0071C24.4301 43.9578 27.3005 50.2644 27.3005 50.2644C20.1558 48.7138 20.8682 39.076 20.8682 39.076C20.8682 39.076 16.3424 45.1311 16.3424 56.5502C16.3424 65.4338 26.3577 79.6187 42.5121 79.6187C58.6663 79.6187 71.6357 67.0893 71.6357 55.9426C71.6357 51.0605 69.9805 44.7538 66.3978 41.3178C66.3978 41.3178 66.8796 51.0605 62.0605 50.5996C62.0605 50.5996 66.0414 37.8817 61.8721 32.0568C61.8721 32.0568 59.8605 38.3426 57.7232 38.5311Z" fill="url(#paint15_radial_12_64)"/>
<path opacity="0.25" d="M57.7232 38.5311C57.9539 26.9444 40.3539 28.5368 44.8796 8.38062C44.8796 8.38062 33.0624 13.0321 35.1367 27.3006C35.8491 32.2035 34.131 35.8702 34.131 35.8702C32.392 36.2263 29.6891 32.7692 30.632 27.4263C30.632 27.4263 24.4301 32.0568 24.4301 38.0071C24.4301 43.9578 27.3005 50.2644 27.3005 50.2644C20.1558 48.7138 20.8682 39.076 20.8682 39.076C20.8682 39.076 16.3424 45.1311 16.3424 56.5502C16.3424 65.4338 26.3577 79.6187 42.5121 79.6187C58.6663 79.6187 71.6357 67.0893 71.6357 55.9426C71.6357 51.0605 69.9805 44.7538 66.3978 41.3178C66.3978 41.3178 66.8796 51.0605 62.0605 50.5996C62.0605 50.5996 66.0414 37.8817 61.8721 32.0568C61.8721 32.0568 59.8605 38.3426 57.7232 38.5311Z" fill="url(#paint16_radial_12_64)"/>
<path opacity="0.25" d="M57.7232 38.5311C57.9539 26.9444 40.3539 28.5368 44.8796 8.38062C44.8796 8.38062 33.0624 13.0321 35.1367 27.3006C35.8491 32.2035 34.131 35.8702 34.131 35.8702C32.392 36.2263 29.6891 32.7692 30.632 27.4263C30.632 27.4263 24.4301 32.0568 24.4301 38.0071C24.4301 43.9578 27.3005 50.2644 27.3005 50.2644C20.1558 48.7138 20.8682 39.076 20.8682 39.076C20.8682 39.076 16.3424 45.1311 16.3424 56.5502C16.3424 65.4338 26.3577 79.6187 42.5121 79.6187C58.6663 79.6187 71.6357 67.0893 71.6357 55.9426C71.6357 51.0605 69.9805 44.7538 66.3978 41.3178C66.3978 41.3178 66.8796 51.0605 62.0605 50.5996C62.0605 50.5996 66.0414 37.8817 61.8721 32.0568C61.8721 32.0568 59.8605 38.3426 57.7232 38.5311Z" fill="url(#paint17_radial_12_64)"/>
<defs>
<linearGradient id="paint0_linear_12_64" x1="47.5325" y1="81.5877" x2="34.6882" y2="-11.4936" gradientUnits="userSpaceOnUse">
<stop stop-color="#FF0000"/>
<stop offset="0.2317" stop-color="#FF1500"/>
<stop offset="0.7367" stop-color="#FF3D00"/>
<stop offset="0.9987" stop-color="#FF4C00"/>
</linearGradient>
<linearGradient id="paint1_linear_12_64" x1="62.5827" y1="79.512" x2="49.7383" y2="-13.5693" gradientUnits="userSpaceOnUse">
<stop stop-color="#FF0000"/>
<stop offset="0.2317" stop-color="#FF1500"/>
<stop offset="0.7367" stop-color="#FF3D00"/>
<stop offset="0.9987" stop-color="#FF4C00"/>
</linearGradient>
<linearGradient id="paint2_linear_12_64" x1="39.3606" y1="82.7151" x2="26.5162" y2="-10.3661" gradientUnits="userSpaceOnUse">
<stop stop-color="#FF0000"/>
<stop offset="0.2317" stop-color="#FF1500"/>
<stop offset="0.7367" stop-color="#FF3D00"/>
<stop offset="0.9987" stop-color="#FF4C00"/>
</linearGradient>
<linearGradient id="paint3_linear_12_64" x1="47.1863" y1="65.7323" x2="19.1192" y2="-14.4254" gradientUnits="userSpaceOnUse">
<stop stop-color="#FF8000"/>
<stop offset="0.6388" stop-color="#FF5B00"/>
<stop offset="0.9987" stop-color="#FF4C00"/>
</linearGradient>
<radialGradient id="paint4_radial_12_64" cx="0" cy="0" r="1" gradientUnits="userSpaceOnUse" gradientTransform="translate(59.2068 0.498181) scale(37.4022 37.4022)">
<stop offset="0.00134333" stop-color="#FFED1C" stop-opacity="0.6"/>
<stop offset="0.9477" stop-color="#FFED1C" stop-opacity="0.0264782"/>
<stop offset="0.9914" stop-color="#FFED1C" stop-opacity="0"/>
</radialGradient>
<linearGradient id="paint5_linear_12_64" x1="36.2879" y1="12.2437" x2="46.4365" y2="69.1709" gradientUnits="userSpaceOnUse">
<stop stop-color="#FF8000"/>
<stop offset="0.022669" stop-color="#FE7F02" stop-opacity="0.9773"/>
<stop offset="0.6663" stop-color="#ED582A" stop-opacity="0.3337"/>
<stop offset="1" stop-color="#E74939" stop-opacity="0"/>
</linearGradient>
<linearGradient id="paint6_linear_12_64" x1="44.1687" y1="73.7571" x2="46.3621" y2="33.7858" gradientUnits="userSpaceOnUse">
<stop stop-color="#FFBC47"/>
<stop offset="0.1869" stop-color="#FFB137" stop-opacity="0.8131"/>
<stop offset="0.7223" stop-color="#FF940F" stop-opacity="0.2777"/>
<stop offset="1" stop-color="#FF8900" stop-opacity="0"/>
</linearGradient>
<radialGradient id="paint7_radial_12_64" cx="0" cy="0" r="1" gradientUnits="userSpaceOnUse" gradientTransform="translate(43.6231 62.9709) scale(28.9327 23.4875)">
<stop offset="0.00134333" stop-color="#FFBC47"/>
<stop offset="0.2941" stop-color="#FFBF4B" stop-opacity="0.7068"/>
<stop offset="0.5624" stop-color="#FEC656" stop-opacity="0.4382"/>
<stop offset="0.8201" stop-color="#FCD368" stop-opacity="0.1801"/>
<stop offset="1" stop-color="#FBE07A" stop-opacity="0"/>
</radialGradient>
<radialGradient id="paint8_radial_12_64" cx="0" cy="0" r="1" gradientUnits="userSpaceOnUse" gradientTransform="translate(43.6231 61.7814) scale(28.0411 22.7638)">
<stop offset="0.00134333" stop-color="white"/>
<stop offset="1" stop-color="white" stop-opacity="0"/>
</radialGradient>
<radialGradient id="paint9_radial_12_64" cx="0" cy="0" r="1" gradientUnits="userSpaceOnUse" gradientTransform="translate(31.3278 66.9538) scale(34.4465 40.106)">
<stop offset="0.00134333" stop-color="#FFED1C" stop-opacity="0.6"/>
<stop offset="0.9477" stop-color="#FFED1C" stop-opacity="0.0264782"/>
<stop offset="0.9914" stop-color="#FFED1C" stop-opacity="0"/>
</radialGradient>
<radialGradient id="paint10_radial_12_64" cx="0" cy="0" r="1" gradientUnits="userSpaceOnUse" gradientTransform="translate(43.6245 61.7785) rotate(92.8876) scale(10.8868 8.8374)">
<stop offset="0.00134333" stop-color="white"/>
<stop offset="1" stop-color="white" stop-opacity="0"/>
</radialGradient>
<radialGradient id="paint11_radial_12_64" cx="0" cy="0" r="1" gradientUnits="userSpaceOnUse" gradientTransform="translate(49.6419 14.6056) scale(12.3573 12.3573)">
<stop offset="0.00134333" stop-color="#FFED1C"/>
<stop offset="0.1997" stop-color="#FFEE2B" stop-opacity="0.8013"/>
<stop offset="0.5839" stop-color="#FFF254" stop-opacity="0.4167"/>
<stop offset="1" stop-color="#FFF686" stop-opacity="0"/>
</radialGradient>
<radialGradient id="paint12_radial_12_64" cx="0" cy="0" r="1" gradientUnits="userSpaceOnUse" gradientTransform="translate(29.2657 20.5507) rotate(-56.4116) scale(10.0097 2.27324)">
<stop offset="0.00134333" stop-color="#FFED1C" stop-opacity="0.6"/>
<stop offset="0.9477" stop-color="#FFED1C" stop-opacity="0.0264782"/>
<stop offset="0.9914" stop-color="#FFED1C" stop-opacity="0"/>
</radialGradient>
<radialGradient id="paint13_radial_12_64" cx="0" cy="0" r="1" gradientUnits="userSpaceOnUse" gradientTransform="translate(31.248 12.7015) rotate(95.0573) scale(8.99422 3.619)">
<stop offset="0.00134333" stop-color="#FFED1C"/>
<stop offset="0.1997" stop-color="#FFEE2B" stop-opacity="0.8013"/>
<stop offset="0.5839" stop-color="#FFF254" stop-opacity="0.4167"/>
<stop offset="1" stop-color="#FFF686" stop-opacity="0"/>
</radialGradient>
<radialGradient id="paint14_radial_12_64" cx="0" cy="0" r="1" gradientUnits="userSpaceOnUse" gradientTransform="translate(46.8967 13.0188) scale(38.5587 38.5587)">
<stop offset="0.00134333" stop-color="#FF4C00"/>
<stop offset="0.135" stop-color="#FF5B0C" stop-opacity="0.8661"/>
<stop offset="0.3941" stop-color="#FF842C" stop-opacity="0.6067"/>
<stop offset="0.7491" stop-color="#FFC45F" stop-opacity="0.2512"/>
<stop offset="1" stop-color="#FFF686" stop-opacity="0"/>
</radialGradient>
<radialGradient id="paint15_radial_12_64" cx="0" cy="0" r="1" gradientUnits="userSpaceOnUse" gradientTransform="translate(64.434 44.2573) scale(20.4663 20.4663)">
<stop offset="0.00134333" stop-color="#FFED1C"/>
<stop offset="0.1997" stop-color="#FFEE2B" stop-opacity="0.8013"/>
<stop offset="0.5839" stop-color="#FFF254" stop-opacity="0.4167"/>
<stop offset="1" stop-color="#FFF686" stop-opacity="0"/>
</radialGradient>
<radialGradient id="paint16_radial_12_64" cx="0" cy="0" r="1" gradientUnits="userSpaceOnUse" gradientTransform="translate(22.539 51.5518) scale(21.8145 21.8145)">
<stop offset="0.00134333" stop-color="#FFED1C"/>
<stop offset="0.1997" stop-color="#FFEE2B" stop-opacity="0.8013"/>
<stop offset="0.5839" stop-color="#FFF254" stop-opacity="0.4167"/>
<stop offset="1" stop-color="#FFF686" stop-opacity="0"/>
</radialGradient>
<radialGradient id="paint17_radial_12_64" cx="0" cy="0" r="1" gradientUnits="userSpaceOnUse" gradientTransform="translate(43.2975 47.1426) rotate(86.1102) scale(37.3666 22.715)">
<stop stop-color="#FF4C00" stop-opacity="0"/>
<stop offset="0.9874" stop-color="#FF4C00" stop-opacity="0.9888"/>
<stop offset="0.9987" stop-color="#FF4C00"/>
</radialGradient>
</defs>
</svg>
