<svg width="54" height="54" viewBox="0 0 54 54" fill="none" xmlns="http://www.w3.org/2000/svg">
<g clip-path="url(#clip0_361_185)">
<path d="M32.742 30.8385C29.5605 31.899 28.5 26.5965 28.5 26.5965C28.5 26.5965 29.9475 25.1445 28.8525 23.853C30.5595 22.1475 29.562 21.2925 29.562 21.2925C28.1555 19.886 26.2479 19.0958 24.2588 19.0958C22.2697 19.0958 20.362 19.886 18.9555 21.2925C18.6442 21.6015 18.3662 21.9424 18.126 22.3095C18.0345 22.4385 17.9535 22.5705 17.871 22.7025L17.85 22.743C17.4256 23.4427 17.119 24.2074 16.9425 25.0065C16.7085 25.485 16.374 25.995 15.774 26.5965C13.653 28.7175 8.3505 25.536 4.107 29.778C4.0635 29.8215 4.0395 29.8815 4.0035 29.934C3.8625 30.06 3.714 30.171 3.5775 30.309C-1.401 35.2875 -0.927 43.836 4.6395 49.401C9.9255 54.6885 17.8995 55.3695 22.953 51.156C23.04 51.1095 23.1285 51.0645 23.2005 50.9925C23.307 50.8845 23.3895 50.7825 23.49 50.6775C23.5695 50.604 23.6535 50.538 23.7315 50.463C26.271 47.922 27.2445 44.868 26.8605 41.7465C26.7585 40.2615 26.613 39.0975 27.4455 38.265C28.506 37.2045 31.6875 38.265 33.8085 36.144C36.984 32.961 34.755 30.1695 32.742 30.8385Z" fill="#BB1A34"/>
<path d="M22.4805 28.365L45.489 5.35803L48.6705 8.54103L25.662 31.5495L22.4805 28.365Z" fill="#292F33"/>
<path d="M15.0015 43.701C17.6745 45.6165 17.94 48.9105 17.79 50.8275C17.727 51.6195 18.5685 52.1745 19.2585 51.783C23.103 49.599 26.1615 46.0995 25.3155 40.0035C25.149 38.901 25.482 36.828 28.7235 36.3945C31.965 35.9595 33.135 34.746 33.5355 34.167C33.765 33.8355 33.9705 32.919 33.0675 32.886C32.166 32.853 29.9265 33.555 27.921 31.182C25.9155 28.809 25.5825 27.84 25.515 27.4725C25.4475 27.105 23.4015 21.9315 21.7275 24.6765C20.337 26.958 18.7905 31.44 13.797 32.607C11.7645 33.081 9.1935 34.1145 8.451 35.547C7.203 37.953 9.141 39.6345 10.812 40.7715C12.4845 41.907 15.0015 43.701 15.0015 43.701Z" fill="#F5F8FA"/>
<path d="M19.608 29.118L21.729 26.9955L27.033 32.298L24.912 34.419L19.608 29.118ZM12.8955 35.829L15.018 33.708L20.3205 39.0105L18.1995 41.1315L12.8955 35.829Z" fill="#292F33"/>
<path d="M11.094 40.7835L43.797 8.1405L44.592 8.937L11.8905 41.58L11.094 40.7835ZM12.3975 42.0855L45.1005 9.444L45.8955 10.2405L13.194 42.885L12.3975 42.0855Z" fill="#CCD6DD"/>
<path d="M14.7225 42.4875C15.306 43.071 15.306 44.025 14.7225 44.6085C14.139 45.192 13.185 45.192 12.6015 44.6085L9.4185 41.427C9.13839 41.1451 8.98117 40.7639 8.98117 40.3665C8.98117 39.9691 9.13839 39.5879 9.4185 39.306H9.42C9.70187 39.0259 10.0831 38.8687 10.4805 38.8687C10.8779 38.8687 11.2591 39.0259 11.541 39.306L14.7225 42.4875Z" fill="#292F33"/>
<path d="M19.542 45.834C20.3704 45.834 21.042 45.1624 21.042 44.334C21.042 43.5056 20.3704 42.834 19.542 42.834C18.7136 42.834 18.042 43.5056 18.042 44.334C18.042 45.1624 18.7136 45.834 19.542 45.834Z" fill="#292F33"/>
<path d="M21.6675 47.8215C21.6675 48.0944 21.5591 48.3561 21.3661 48.5491C21.1731 48.7421 20.9114 48.8505 20.6385 48.8505C20.3656 48.8505 20.1039 48.7421 19.9109 48.5491C19.7179 48.3561 19.6095 48.0944 19.6095 47.8215C19.6095 47.5486 19.7179 47.2868 19.9109 47.0939C20.1039 46.9009 20.3656 46.7925 20.6385 46.7925C20.9114 46.7925 21.1731 46.9009 21.3661 47.0939C21.5591 47.2868 21.6675 47.5486 21.6675 47.8215Z" fill="#292F33"/>
<path d="M52.632 6.80995C52.9313 7.11095 53.0992 7.51826 53.0989 7.94276C53.0987 8.36725 52.9302 8.77435 52.6305 9.07495L46.0875 13.6049C45.7865 13.9041 45.3794 14.072 44.955 14.072C44.5306 14.072 44.1235 13.9041 43.8225 13.6049L40.425 10.2059C40.1257 9.90495 39.9578 9.49763 39.9581 9.07314C39.9583 8.64864 40.1268 8.24155 40.4265 7.94095L44.9565 1.39945C45.2575 1.10029 45.6646 0.932373 46.089 0.932373C46.5134 0.932373 46.9205 1.10029 47.2215 1.39945L52.632 6.80995Z" fill="#BB1A34"/>
<path d="M48.1845 15.0405C48.7023 15.0405 49.122 14.6208 49.122 14.103C49.122 13.5853 48.7023 13.1655 48.1845 13.1655C47.6667 13.1655 47.247 13.5853 47.247 14.103C47.247 14.6208 47.6667 15.0405 48.1845 15.0405Z" fill="#66757F"/>
<path d="M50.0715 13.7729C50.5893 13.7729 51.009 13.3532 51.009 12.8354C51.009 12.3177 50.5893 11.8979 50.0715 11.8979C49.5537 11.8979 49.134 12.3177 49.134 12.8354C49.134 13.3532 49.5537 13.7729 50.0715 13.7729Z" fill="#66757F"/>
<path d="M51.96 12.5055C52.4778 12.5055 52.8975 12.0858 52.8975 11.568C52.8975 11.0502 52.4778 10.6305 51.96 10.6305C51.4422 10.6305 51.0225 11.0502 51.0225 11.568C51.0225 12.0858 51.4422 12.5055 51.96 12.5055Z" fill="#66757F"/>
<path d="M40.068 6.65405C40.5858 6.65405 41.0055 6.23432 41.0055 5.71655C41.0055 5.19879 40.5858 4.77905 40.068 4.77905C39.5502 4.77905 39.1305 5.19879 39.1305 5.71655C39.1305 6.23432 39.5502 6.65405 40.068 6.65405Z" fill="#66757F"/>
<path d="M41.3325 4.79395C41.8503 4.79395 42.27 4.37421 42.27 3.85645C42.27 3.33868 41.8503 2.91895 41.3325 2.91895C40.8147 2.91895 40.395 3.33868 40.395 3.85645C40.395 4.37421 40.8147 4.79395 41.3325 4.79395Z" fill="#66757F"/>
<path d="M42.597 2.93555C43.1148 2.93555 43.5345 2.51581 43.5345 1.99805C43.5345 1.48028 43.1148 1.06055 42.597 1.06055C42.0792 1.06055 41.6595 1.48028 41.6595 1.99805C41.6595 2.51581 42.0792 2.93555 42.597 2.93555Z" fill="#66757F"/>
</g>
<defs>
<clipPath id="clip0_361_185">
<rect width="54" height="54" fill="white"/>
</clipPath>
</defs>
</svg>
