<svg width="74" height="56" viewBox="0 0 74 56" fill="none" xmlns="http://www.w3.org/2000/svg">
<g clip-path="url(#clip0_37_38)">
<path d="M32.4068 3.30413C29.9477 3.81981 28.3757 6.21501 28.8957 8.65393L37.8006 6.78646C37.2808 4.34751 34.8658 2.78843 32.4068 3.30413Z" fill="#F69F5F"/>
<path d="M32.4068 3.30413C29.9477 3.81981 28.3757 6.21501 28.8957 8.65393L37.8006 6.78646C37.2808 4.34751 34.8658 2.78843 32.4068 3.30413Z" fill="url(#paint0_linear_37_38)"/>
<path d="M18.5887 6.20158C16.1298 6.71727 14.5578 9.11248 15.0778 11.5514L23.9827 9.68391C23.4627 7.245 21.0477 5.6859 18.5887 6.20158Z" fill="#F69F5F"/>
<path d="M18.5887 6.20158C16.1298 6.71727 14.5578 9.11248 15.0778 11.5514L23.9827 9.68391C23.4627 7.245 21.0477 5.6859 18.5887 6.20158Z" fill="url(#paint1_linear_37_38)"/>
<path d="M54.1995 13.7838L52.1 14.2562L51.2747 21.1326L49.1183 21.5715L48.3337 26.8635L46.6074 27.486L45.3597 35.9847L54.7942 24.7446L52.2568 25.9296L60.2601 18.4586L56.8078 19.8594L66.3497 10.5513L62.4572 12.0772L74 0L55.9552 4.41981L54.1995 13.7838Z" fill="#F69F5F"/>
<path d="M54.1995 13.7838L52.1 14.2562L51.2747 21.1326L49.1183 21.5715L48.3337 26.8635L46.6074 27.486L45.3597 35.9847L54.7942 24.7446L52.2568 25.9296L60.2601 18.4586L56.8078 19.8594L66.3497 10.5513L62.4572 12.0772L74 0L55.9552 4.41981L54.1995 13.7838Z" fill="url(#paint2_linear_37_38)"/>
<path d="M42.9292 39.2933L40.4326 34.2251L37.8954 39.2734L32.2642 40.0622L36.3207 44.0154L35.337 49.571L40.3812 46.9662L45.4046 49.6109L44.4655 44.0478L48.5538 40.1266L42.9292 39.2933Z" fill="#F69F5F"/>
<path d="M42.9292 39.2933L40.4326 34.2251L37.8954 39.2734L32.2642 40.0622L36.3207 44.0154L35.337 49.571L40.3812 46.9662L45.4046 49.6109L44.4655 44.0478L48.5538 40.1266L42.9292 39.2933Z" fill="url(#paint3_linear_37_38)"/>
<path d="M42.069 19.6472C39.5866 21.917 36.4533 23.2296 33.2003 23.9118C34.3085 23.6796 36.3664 16.7997 36.3664 16.7997L17.676 20.7193L15.1957 28.4079L25.2507 26.2993L23.0034 33.1424L12.991 35.2423L8.96729 47.7149L29.8163 43.3425L32.327 45.7085L31.6993 49.3195L0 55.9673L10.9135 22.1375C7.71915 22.8074 4.37229 21.8792 1.85025 19.6236L0.0773334 18.038L49.7399 7.62305C47.8097 12.9308 45.8965 16.148 42.069 19.6472Z" fill="#F69F5F"/>
<path d="M42.069 19.6472C39.5866 21.917 36.4533 23.2296 33.2003 23.9118C34.3085 23.6796 36.3664 16.7997 36.3664 16.7997L17.676 20.7193L15.1957 28.4079L25.2507 26.2993L23.0034 33.1424L12.991 35.2423L8.96729 47.7149L29.8163 43.3425L32.327 45.7085L31.6993 49.3195L0 55.9673L10.9135 22.1375C7.71915 22.8074 4.37229 21.8792 1.85025 19.6236L0.0773334 18.038L49.7399 7.62305C47.8097 12.9308 45.8965 16.148 42.069 19.6472Z" fill="url(#paint4_linear_37_38)"/>
</g>
<defs>
<linearGradient id="paint0_linear_37_38" x1="127.796" y1="46.3262" x2="8.18764" y2="61.0588" gradientUnits="userSpaceOnUse">
<stop stop-color="white"/>
<stop offset="1" stop-color="white" stop-opacity="0"/>
</linearGradient>
<linearGradient id="paint1_linear_37_38" x1="127.796" y1="46.3259" x2="8.18762" y2="61.0584" gradientUnits="userSpaceOnUse">
<stop stop-color="white"/>
<stop offset="1" stop-color="white" stop-opacity="0"/>
</linearGradient>
<linearGradient id="paint2_linear_37_38" x1="127.796" y1="46.3261" x2="8.18766" y2="61.0586" gradientUnits="userSpaceOnUse">
<stop stop-color="white"/>
<stop offset="1" stop-color="white" stop-opacity="0"/>
</linearGradient>
<linearGradient id="paint3_linear_37_38" x1="127.796" y1="46.326" x2="8.18762" y2="61.0585" gradientUnits="userSpaceOnUse">
<stop stop-color="white"/>
<stop offset="1" stop-color="white" stop-opacity="0"/>
</linearGradient>
<linearGradient id="paint4_linear_37_38" x1="127.796" y1="46.3259" x2="8.18762" y2="61.0585" gradientUnits="userSpaceOnUse">
<stop stop-color="white"/>
<stop offset="1" stop-color="white" stop-opacity="0"/>
</linearGradient>
<clipPath id="clip0_37_38">
<rect width="74" height="56" fill="white"/>
</clipPath>
</defs>
</svg>
