<svg width="82" height="82" viewBox="0 0 82 82" fill="none" xmlns="http://www.w3.org/2000/svg">
<circle cx="41" cy="41" r="41" fill="#1788F0"/>
<path d="M48.1024 20C51.6745 20 54.5693 22.8955 54.5693 26.4669C54.5693 30.0383 51.6745 32.9335 48.1024 32.9335C44.5315 32.9335 41.6359 30.0383 41.6359 26.4669C41.6358 22.8955 44.5314 20 48.1024 20Z" fill="white"/>
<path d="M34.1071 44.3577C34.6465 44.3577 35.1251 44.1145 35.4537 43.7375L46.3387 33.7144C44.1782 33.1901 42.3845 31.724 41.4181 29.7764L32.8189 41.2231C32.502 41.6656 32.3141 42.0515 32.3141 42.5639C32.3141 43.5541 33.1178 44.3577 34.1071 44.3577Z" fill="white"/>
<path d="M28.8752 53.9923C32.4925 56.7718 38.053 51.5069 38.2608 51.306C38.3205 51.2539 44.1856 46.0901 46.9198 49.1485C47.4906 49.7847 47.7292 50.5213 47.6535 51.3999C47.3659 54.6574 42.8421 58.8794 41.1224 60.231C40.6932 60.5689 40.6186 61.1917 40.9563 61.6214C41.1515 61.8702 41.4407 62 41.7349 62C41.9475 62 42.1644 61.93 42.3432 61.7895C42.6244 61.5688 49.2032 56.3563 49.6241 51.5754C49.7508 50.141 49.3373 48.8806 48.3958 47.8282C47.1904 46.4802 44.9117 45.2762 40.9144 47.1951C38.726 48.2437 37.0147 49.7653 36.9167 49.8524C35.7408 50.978 31.9601 53.8649 30.0802 52.4212C29.671 52.1069 29.4608 51.7268 29.4166 51.2253C29.2686 49.4936 31.0992 47.0006 32.0099 45.9573L34.0381 45.25C34.0381 45.25 33.632 45.2047 32.6755 44.3474C31.7812 43.5438 31.5439 42.6748 31.5439 42.6748L30.6311 44.5293C29.981 45.2542 27.2038 48.5355 27.4454 51.3919C27.534 52.4433 28.0282 53.3428 28.8752 53.9923Z" fill="white"/>
</svg>
