<?xml version="1.0"?>
<svg xmlns="http://www.w3.org/2000/svg" xmlns:xlink="http://www.w3.org/1999/xlink" version="1.1" xml:space="preserve">
  <defs>

    <symbol id="logo" width="100%" height="100%" viewBox="0 0 85 65">
      <path d="M37.224 3.83498C34.3994 4.43355 32.5937 7.21369 33.191 10.0446L43.4196 7.87697C42.8225 5.04605 40.0485 3.2364 37.224 3.83498Z" fill="currentColor"/>
      <path d="M37.224 3.83498C34.3994 4.43355 32.5937 7.21369 33.191 10.0446L43.4196 7.87697C42.8225 5.04605 40.0485 3.2364 37.224 3.83498Z" fill="currentColor"/>
      <path d="M21.3519 7.1985C18.5274 7.79707 16.7218 10.5772 17.3191 13.4081L27.5477 11.2405C26.9505 8.40961 24.1765 6.59994 21.3519 7.1985Z" fill="currentColor"/>
      <path d="M21.3519 7.1985C18.5274 7.79707 16.7218 10.5772 17.3191 13.4081L27.5477 11.2405C26.9505 8.40961 24.1765 6.59994 21.3519 7.1985Z" fill="currentColor"/>
      <path d="M62.2561 15.999L59.8445 16.5474L58.8965 24.5289L56.4197 25.0383L55.5183 31.1808L53.5355 31.9034L52.1024 41.7679L62.9393 28.7214L60.0247 30.0969L69.2176 21.4252L65.2522 23.0511L76.2125 12.247L71.7413 14.0181L85 0L64.2728 5.13013L62.2561 15.999Z" fill="currentColor"/>
      <path d="M62.2561 15.999L59.8445 16.5474L58.8965 24.5289L56.4197 25.0383L55.5183 31.1808L53.5355 31.9034L52.1024 41.7679L62.9393 28.7214L60.0247 30.0969L69.2176 21.4252L65.2522 23.0511L76.2125 12.247L71.7413 14.0181L85 0L64.2728 5.13013L62.2561 15.999Z" fill="currentColor"/>
      <path d="M49.3105 45.6084L46.4429 39.7257L43.5285 45.5853L37.0602 46.5009L41.7198 51.0894L40.5898 57.538L46.3839 54.5145L52.1539 57.5842L51.0752 51.127L55.7713 46.5757L49.3105 45.6084Z" fill="currentColor"/>
      <path d="M49.3105 45.6084L46.4429 39.7257L43.5285 45.5853L37.0602 46.5009L41.7198 51.0894L40.5898 57.538L46.3839 54.5145L52.1539 57.5842L51.0752 51.127L55.7713 46.5757L49.3105 45.6084Z" fill="currentColor"/>
      <path d="M48.3225 22.8051C45.4711 25.4396 41.8721 26.9632 38.1355 27.755C39.4084 27.4854 41.7722 19.4998 41.7722 19.4998L20.3035 24.0494L17.4545 32.9736L29.0042 30.5262L26.4228 38.4691L14.922 40.9064L10.3003 55.3836L34.2484 50.3085L37.1324 53.0547L36.4114 57.246L0 64.9623L12.5358 25.6955C8.86659 26.473 5.02222 25.3957 2.12528 22.7776L0.0888289 20.9371L57.1337 8.84839C54.9166 15.0092 52.719 18.7434 48.3225 22.8051Z" fill="currentColor"/>
      <path d="M48.3225 22.8051C45.4711 25.4396 41.8721 26.9632 38.1355 27.755C39.4084 27.4854 41.7722 19.4998 41.7722 19.4998L20.3035 24.0494L17.4545 32.9736L29.0042 30.5262L26.4228 38.4691L14.922 40.9064L10.3003 55.3836L34.2484 50.3085L37.1324 53.0547L36.4114 57.246L0 64.9623L12.5358 25.6955C8.86659 26.473 5.02222 25.3957 2.12528 22.7776L0.0888289 20.9371L57.1337 8.84839C54.9166 15.0092 52.719 18.7434 48.3225 22.8051Z" fill="currentColor"/>
    </symbol>

    <symbol id="loader" width="100%" height="100%" viewBox="22 22 44 44">
      <circle cx="44" cy="44" r="20.2" fill="none" stroke="currentColor" stroke-width="4"></circle>
    </symbol>

    <symbol id="burger" width="100%" height="100%" viewBox="0 0 24 24">
      <path d="M4 6H20" stroke="currentColor" stroke-width="2" stroke-linecap="round" stroke-linejoin="round"/>
      <path d="M4 12H20" stroke="currentColor" stroke-width="2" stroke-linecap="round" stroke-linejoin="round"/>
      <path d="M4 18H20" stroke="currentColor" stroke-width="2" stroke-linecap="round" stroke-linejoin="round"/>
    </symbol>

    <symbol id="close" width="100%" height="100%" viewBox="0 0 24 24">
      <path d="M18 6L6 18" stroke="white" stroke-width="2" stroke-linecap="round" stroke-linejoin="currentColor"/>
      <path d="M6 6L18 18" stroke="white" stroke-width="2" stroke-linecap="round" stroke-linejoin="currentColor"/>
    </symbol>

    <symbol id="success" width="100%" height="100%" viewBox="0 0 68 68">
      <path fill-rule="evenodd" clip-rule="evenodd" d="M34 68C52.7777 68 68 52.7777 68 34C68 15.2223 52.7777 0 34 0C15.2223 0 0 15.2223 0 34C0 52.7777 15.2223 68 34 68ZM49.7552 28.5052C51.4149 26.8455 51.4149 24.1545 49.7552 22.4948C48.0955 20.8351 45.4045 20.8351 43.7448 22.4948L29.75 36.4896L24.2552 30.9948C22.5955 29.3351 19.9045 29.3351 18.2448 30.9948C16.5851 32.6545 16.5851 35.3455 18.2448 37.0052L26.7448 45.5052C28.4045 47.1649 31.0955 47.1649 32.7552 45.5052L49.7552 28.5052Z" fill="currentColor"/>
    </symbol>

    <symbol id="arrow-left" width="100%" height="100%" viewBox="0 0 11 18">
      <path d="M3.76777 9L9.88388 2.88388C10.372 2.39573 10.372 1.60427 9.88388 1.11612C9.39573 0.627961 8.60427 0.627961 8.11612 1.11612L1.11612 8.11612C0.62796 8.60427 0.62796 9.39573 1.11612 9.88388L8.11612 16.8839C8.60427 17.372 9.39573 17.372 9.88388 16.8839C10.372 16.3957 10.372 15.6043 9.88388 15.1161L3.76777 9Z" fill="currentColor"/>
    </symbol>

    <symbol id="arrow-right" width="100%" height="100%" viewBox="0 0 11 18">
      <path d="M7.23223 9L1.11612 2.88388C0.627961 2.39573 0.627961 1.60427 1.11612 1.11612C1.60427 0.627961 2.39573 0.627961 2.88388 1.11612L9.88388 8.11612C10.372 8.60427 10.372 9.39573 9.88388 9.88388L2.88388 16.8839C2.39573 17.372 1.60427 17.372 1.11612 16.8839C0.627961 16.3957 0.627961 15.6043 1.11612 15.1161L7.23223 9Z" fill="currentColor"/>
    </symbol>

    <symbol id="tg" width="100%" height="100%" viewBox="0 0 17 15">
      <path fill-rule="evenodd" clip-rule="evenodd" d="M1.28641 6.30375C5.69529 4.30381 8.63035 2.97491 10.1042 2.33019C14.2989 0.5013 15.1807 0.185521 15.7476 0.172363C15.8735 0.172363 16.1507 0.198678 16.3396 0.356568C16.4908 0.488143 16.5286 0.659191 16.5537 0.790765C16.5789 0.92234 16.6041 1.19865 16.5789 1.40917C16.3522 3.90909 15.3696 9.97468 14.8658 12.7641C14.6516 13.9482 14.2359 14.343 13.8328 14.3824C12.9511 14.4614 12.2834 13.7772 11.4394 13.1983C10.1042 12.2904 9.36097 11.7246 8.06349 10.8299C6.56447 9.80364 7.53443 9.23787 8.39101 8.31684C8.61775 8.08001 12.485 4.39591 12.5606 4.06698C12.5732 4.02751 12.5732 3.86961 12.485 3.79067C12.3968 3.71172 12.2708 3.73804 12.1701 3.76436C12.0315 3.79067 9.91523 5.26431 5.79607 8.17211C5.19142 8.60631 4.64976 8.81683 4.15848 8.80367C3.61682 8.79051 2.58388 8.48789 1.80288 8.22474C0.858116 7.90896 0.102307 7.73791 0.165291 7.1853C0.203082 6.89583 0.580986 6.60637 1.28641 6.30375Z" fill="currentColor"/>
    </symbol>

    <symbol id="wa" width="100%" height="100%" viewBox="0 0 20 20">
      <path fill-rule="evenodd" clip-rule="evenodd" d="M16.7316 3.26121C14.9455 1.48158 12.5703 0.501087 10.0396 0.5C4.82528 0.5 0.581372 4.72334 0.579279 9.9144C0.578642 11.5737 1.01417 13.1934 1.84209 14.6213L0.5 19.5L5.51503 18.1908C6.8968 18.9408 8.45252 19.3362 10.0358 19.3368H10.0397C15.2535 19.3368 19.4978 15.1129 19.5 9.92173C19.5009 7.40619 18.5177 5.04075 16.7316 3.26121ZM10.0397 17.7467H10.0365C8.62564 17.7462 7.24177 17.3689 6.03457 16.6559L5.7474 16.4864L2.77141 17.2633L3.56574 14.3756L3.37878 14.0794C2.59173 12.8336 2.17595 11.3936 2.17659 9.91485C2.17832 5.60029 5.70562 2.09013 10.0429 2.09013C12.143 2.09085 14.1173 2.90584 15.6019 4.3851C17.0864 5.86426 17.9034 7.83031 17.9026 9.92128C17.9009 14.2362 14.3736 17.7467 10.0397 17.7467ZM14.3527 11.8858C14.1163 11.7681 12.9543 11.199 12.7376 11.1204C12.5209 11.0421 12.3633 11.0028 12.2057 11.2383C12.0482 11.4738 11.5951 12.0036 11.4572 12.1607C11.3193 12.3176 11.1814 12.3374 10.9451 12.2195C10.7086 12.1018 9.94707 11.8534 9.04415 11.0519C8.34148 10.4281 7.86708 9.65777 7.72918 9.42216C7.59129 9.18664 7.71444 9.05937 7.83286 8.94206C7.93917 8.83662 8.06924 8.66722 8.18747 8.5299C8.30571 8.39257 8.34503 8.29438 8.42385 8.13739C8.50267 7.98041 8.46326 7.84299 8.4041 7.72532C8.34503 7.60747 7.87227 6.44952 7.6753 5.97848C7.48343 5.51985 7.28855 5.5819 7.14347 5.57466C7.00575 5.56786 6.84802 5.56632 6.69037 5.56632C6.53281 5.56632 6.27677 5.6252 6.06006 5.86072C5.84343 6.09624 5.23277 6.66539 5.23277 7.82334C5.23277 8.98128 6.07972 10.0998 6.19795 10.2569C6.3161 10.4139 7.8648 12.79 10.236 13.8091C10.7998 14.0515 11.2402 14.1962 11.5835 14.3047C12.1498 14.4838 12.6651 14.4584 13.0723 14.3979C13.5265 14.3303 14.4709 13.8288 14.6678 13.2793C14.8648 12.7297 14.8648 12.2586 14.8057 12.1605C14.7467 12.0625 14.5891 12.0036 14.3527 11.8858Z" fill="currentColor"/>
    </symbol>

    <symbol id="to-left" width="100%" height="100%" viewBox="0 0 24 24">
      <path d="M5 12H19" stroke="currentColor" stroke-width="2" stroke-linecap="round" stroke-linejoin="round"/>
      <path d="M5 12L9 16" stroke="currentColor" stroke-width="2" stroke-linecap="round" stroke-linejoin="round"/>
      <path d="M5 12L9 8" stroke="currentColor" stroke-width="2" stroke-linecap="round" stroke-linejoin="round"/>
    </symbol>

    <symbol id="tree" width="100%" height="100%" viewBox="0 0 62 60">
      <path d="M43.0836 35.2519L59.8216 28.2919C62.2886 27.2619 62.2836 23.7619 59.8126 22.7519L5.23461 0.23184C2.76361 -0.778159 0.29361 1.69189 1.32061 4.16189L8.28362 20.9019L4.65862 19.4019C2.09462 18.3519 -0.408381 21.0419 0.830619 23.5219L8.1336 38.1419L5.94262 37.2419C3.27762 36.1419 0.747596 39.0719 2.2196 41.5519L11.7976 57.6719C12.4786 58.8119 13.8346 59.3719 15.1256 59.0419L33.2816 54.3618C36.0736 53.6418 36.3416 49.7819 33.6766 48.6819L31.4856 47.7719L46.9766 42.5519C49.6046 41.6619 49.7256 37.9919 47.1616 36.9319L43.0836 35.2519Z" fill="currentColor"/>
    </symbol>

    <symbol id="star" width="100%" height="100%" viewBox="0 0 76 72">
      <path d="M49.3715 23.7172L37.8144 0L26.0685 23.6241L0 27.3156L18.7791 45.8152L14.2249 71.8137L37.5764 59.6241L60.8309 72L56.4836 45.9666L75.4098 27.6171L49.3715 23.7172Z" fill="currentColor"/>
    </symbol>

    <symbol id="lightning" width="100%" height="100%" viewBox="0 0 58 72">
      <path d="M17.9538 27.5793L13.7869 28.5245L12.149 42.2831L7.86934 43.1613L6.31196 53.7498L2.88594 54.9953L0.409668 72L19.1342 49.5102L14.0982 51.8813L29.9823 36.933L23.1305 39.7358L42.0683 21.1115L34.3428 24.1646L57.2518 0L21.4383 8.84338L17.9538 27.5793Z" fill="currentColor"/>
    </symbol>

    <symbol id="play" width="100%" height="100%" viewBox="0 0 68 68">
      <path d="M25.9297 15.0849C23.2647 13.4449 19.8333 15.3623 19.8333 18.4916V49.5084C19.8333 52.6377 23.2647 54.5551 25.9297 52.915L51.1309 37.4066C53.669 35.8447 53.669 32.1553 51.1309 30.5933L25.9297 15.0849Z" fill="currentColor"/>
    </symbol>

    <symbol id="tel" width="100%" height="100%" viewBox="0 0 64 64">
      <path d="M13.3333 10.6665H24L29.3333 23.9998L22.6667 27.9998C25.5226 33.7906 30.2093 38.4773 36 41.3332L40 34.6665L53.3333 39.9998V50.6665C53.3333 52.081 52.7714 53.4375 51.7712 54.4377C50.771 55.4379 49.4145 55.9998 48 55.9998C37.598 55.3677 27.7871 50.9505 20.4182 43.5816C13.0493 36.2128 8.63213 26.4018 8 15.9998C8 14.5853 8.5619 13.2288 9.5621 12.2286C10.5623 11.2284 11.9188 10.6665 13.3333 10.6665" fill="var(--color-none)" stroke="currentColor" stroke-width="4" stroke-linecap="round" stroke-linejoin="round"/>
      <path d="M40 18.6665C41.4145 18.6665 42.771 19.2284 43.7712 20.2286C44.7714 21.2288 45.3333 22.5853 45.3333 23.9998" fill="var(--color-none)" stroke="currentColor" stroke-width="4" stroke-linecap="round" stroke-linejoin="round"/>
      <path d="M40 8C44.2435 8 48.3131 9.68571 51.3137 12.6863C54.3143 15.6869 56 19.7565 56 24" fill="var(--color-none)" stroke="currentColor" stroke-width="4" stroke-linecap="round" stroke-linejoin="round"/>
    </symbol>

    <symbol id="mail" width="100%" height="100%" viewBox="0 0 64 64">
      <path d="M32 47.9998H13.3333C11.9188 47.9998 10.5623 47.4379 9.5621 46.4377C8.5619 45.4375 8 44.081 8 42.6665V15.9998C8 14.5853 8.5619 13.2288 9.5621 12.2286C10.5623 11.2284 11.9188 10.6665 13.3333 10.6665H50.6667C52.0812 10.6665 53.4377 11.2284 54.4379 12.2286C55.4381 13.2288 56 14.5853 56 15.9998V35.9998" fill="var(--color-none)" stroke="currentColor" stroke-width="4" stroke-linecap="round" stroke-linejoin="round"/>
      <path d="M8 16L32 32L56 16" fill="var(--color-none)" stroke="currentColor" stroke-width="4" stroke-linecap="round" stroke-linejoin="round"/>
      <path d="M40 48H56" fill="var(--color-none)" stroke="currentColor" stroke-width="4" stroke-linecap="round" stroke-linejoin="round"/>
      <path d="M48 40L56 48L48 56" fill="var(--color-none)" stroke="currentColor" stroke-width="4" stroke-linecap="round" stroke-linejoin="round"/>
    </symbol>

    <symbol id="geo" width="100%" height="100%" viewBox="0 0 64 64">
      <path d="M32 37.3335C36.4183 37.3335 40 33.7518 40 29.3335C40 24.9152 36.4183 21.3335 32 21.3335C27.5817 21.3335 24 24.9152 24 29.3335C24 33.7518 27.5817 37.3335 32 37.3335Z" fill="var(--color-none)" stroke="currentColor" stroke-width="4" stroke-linecap="round" stroke-linejoin="round"/>
      <path d="M47.0853 44.4189L35.7707 55.7335C34.7706 56.7326 33.4149 57.2937 32.0013 57.2937C30.5878 57.2937 29.232 56.7326 28.232 55.7335L16.9147 44.4189C13.9313 41.4353 11.8996 37.6341 11.0765 33.4958C10.2534 29.3576 10.676 25.0682 12.2907 21.1701C13.9054 17.272 16.6397 13.9403 20.1479 11.5962C23.6562 9.25213 27.7807 8.00098 32 8.00098C36.2193 8.00098 40.3438 9.25213 43.852 11.5962C47.3603 13.9403 50.0946 17.272 51.7093 21.1701C53.324 25.0682 53.7466 29.3576 52.9235 33.4958C52.1004 37.6341 50.0687 41.4353 47.0853 44.4189V44.4189Z" fill="var(--color-none)" stroke="currentColor" stroke-width="4" stroke-linecap="round" stroke-linejoin="round"/>
    </symbol>

  </defs>
</svg>