<?xml version="1.0" standalone="no"?>
<!DOCTYPE svg PUBLIC "-//W3C//DTD SVG 20010904//EN"
 "http://www.w3.org/TR/2001/REC-SVG-20010904/DTD/svg10.dtd">
<svg version="1.0" xmlns="http://www.w3.org/2000/svg"
 width="260.000000pt" height="260.000000pt" viewBox="0 0 260.000000 260.000000"
 preserveAspectRatio="xMidYMid meet">
<metadata>
Created by potrace 1.14, written by Peter Selinger 2001-2017
</metadata>
<g transform="translate(0.000000,260.000000) scale(0.100000,-0.100000)"
fill="#000000" stroke="none">
<path d="M2245 2199 c-154 -39 -283 -73 -287 -77 -3 -4 -8 -20 -11 -37 -3 -16
-8 -46 -11 -65 -9 -47 -11 -53 -26 -143 -14 -77 -14 -77 -51 -87 -41 -11 -38
-4 -55 -165 -6 -60 -18 -96 -32 -94 -49 8 -55 -1 -67 -101 -3 -25 -7 -54 -9
-65 -1 -11 -16 -26 -33 -34 -30 -13 -32 -18 -43 -100 -7 -47 -14 -93 -15 -101
-13 -76 -16 -100 -12 -100 4 0 56 62 166 195 35 43 116 140 121 145 3 3 11 13
19 23 13 16 11 16 -25 1 l-39 -15 51 48 c28 26 85 80 127 120 42 39 77 74 77
77 0 3 -21 -4 -46 -14 -25 -11 -48 -20 -50 -20 -2 0 69 72 158 161 90 88 158
158 152 156 -5 -3 -34 -15 -64 -27 -59 -23 -59 -21 5 46 17 17 61 64 100 105
38 41 106 111 149 157 69 71 76 82 55 81 -13 0 -150 -32 -304 -70z"/>
<path d="M1106 2150 c-21 -10 -46 -29 -55 -42 -21 -29 -39 -88 -33 -110 5 -21
13 -22 62 -8 19 5 49 11 65 14 17 3 65 13 107 22 76 17 77 17 67 43 -12 30
-45 68 -73 83 -36 20 -100 19 -140 -2z"/>
<path d="M645 2058 c-40 -14 -75 -46 -91 -85 -18 -41 -18 -93 -1 -93 7 0 75
14 150 30 76 17 140 30 142 30 10 0 -18 56 -38 79 -38 40 -108 57 -162 39z"/>
<path d="M1687 2004 c-2 -2 -360 -79 -407 -88 -14 -3 -121 -25 -237 -50 -223
-48 -352 -75 -392 -82 -12 -3 -51 -11 -85 -19 -33 -8 -77 -17 -96 -20 -19 -3
-51 -10 -70 -15 -35 -10 -316 -70 -345 -74 -27 -4 -25 -13 12 -47 86 -79 158
-109 260 -109 l63 0 -5 -30 c-3 -17 -12 -47 -19 -68 -8 -20 -42 -125 -76 -232
-34 -107 -97 -305 -140 -440 -100 -313 -129 -405 -126 -407 1 -1 42 7 91 18
50 11 99 21 110 23 11 3 182 39 380 81 198 42 369 78 380 81 143 29 137 24
147 114 5 43 3 47 -38 84 l-44 39 -222 -48 c-450 -95 -493 -104 -494 -102 -1
1 4 20 11 42 7 22 38 119 69 216 l56 175 127 28 c71 15 137 29 148 31 75 16
68 8 109 131 20 64 36 117 34 119 -2 2 -50 -7 -108 -20 -58 -13 -118 -25 -135
-28 -16 -3 -45 -9 -64 -13 -39 -8 -40 -24 16 152 l36 110 116 24 c64 13 121
25 126 26 6 1 97 21 204 43 107 23 195 41 197 41 6 0 -66 -194 -81 -217 -20
-29 -8 -30 66 -4 204 70 358 236 460 493 l19 48 -26 -2 c-14 -2 -26 -3 -27 -4z"/>
<path d="M1376 995 c-22 -46 -45 -86 -52 -89 -7 -3 -39 -8 -70 -12 -32 -3 -65
-8 -73 -9 -9 -2 -23 -4 -31 -4 -8 -1 18 -33 58 -74 40 -40 71 -75 68 -78 -2
-2 -6 -22 -9 -44 -4 -22 -10 -61 -15 -87 -5 -27 -8 -48 -6 -48 2 0 42 19 88
42 l85 42 81 -42 c44 -23 83 -42 86 -42 3 0 3 12 0 28 -3 15 -8 43 -11 62 -3
19 -8 49 -11 67 -6 29 0 37 66 100 l72 68 -98 15 -98 15 -43 88 c-23 48 -44
87 -45 87 -2 0 -21 -39 -42 -85z"/>
</g>
</svg>
